HIERARCHY
ROOT Haolin_28_06:Solving:Hips
{
	OFFSET 0.000000 0.000000 0.000000
	CHANNELS 6 Xposition Yposition Zposition Xrotation Yrotation Zrotation
	JOINT Haolin_28_06:Solving:Spine
	{
		OFFSET 0.000000 -12.181966 2.015561
		CHANNELS 6 Xposition Yposition Zposition Xrotation Yrotation Zrotation
		JOINT Haolin_28_06:Solving:Spine1
		{
			OFFSET 0.000000 -8.890296 1.567602
			CHANNELS 6 Xposition Yposition Zposition Xrotation Yrotation Zrotation
			JOINT Haolin_28_06:Solving:Spine2
			{
				OFFSET 0.000000 -8.993092 0.786796
				CHANNELS 6 Xposition Yposition Zposition Xrotation Yrotation Zrotation
				JOINT Haolin_28_06:Solving:Spine3
				{
					OFFSET 0.000000 -9.027443 0.000000
					CHANNELS 6 Xposition Yposition Zposition Xrotation Yrotation Zrotation
					JOINT Haolin_28_06:Solving:Neck
					{
						OFFSET 0.000000 -11.606712 -1.160669
						CHANNELS 6 Xposition Yposition Zposition Xrotation Yrotation Zrotation
						JOINT Haolin_28_06:Solving:Neck1
						{
							OFFSET 0.000000 -7.471592 -0.653680
							CHANNELS 6 Xposition Yposition Zposition Xrotation Yrotation Zrotation
							JOINT Haolin_28_06:Solving:Head
							{
								OFFSET 0.000000 -7.386181 -1.302382
								CHANNELS 6 Xposition Yposition Zposition Xrotation Yrotation Zrotation
								JOINT Haolin_28_06:Solving:HeadEnd
								{
									OFFSET 0.000000 -9.728081 0.000002
									CHANNELS 6 Xposition Yposition Zposition Xrotation Yrotation Zrotation
									End Site
									{
										OFFSET 0.000000 -9.728081 0.000002
									}
								}
							}
						}
					}
					JOINT Haolin_28_06:Solving:RightShoulder
					{
						OFFSET 0.000000 -8.290508 -5.270916
						CHANNELS 6 Xposition Yposition Zposition Xrotation Yrotation Zrotation
						JOINT Haolin_28_06:Solving:RightArm
						{
							OFFSET -19.261074 -0.000008 0.000000
							CHANNELS 6 Xposition Yposition Zposition Xrotation Yrotation Zrotation
							JOINT Haolin_28_06:Solving:RightForeArm
							{
								OFFSET -30.691700 -0.000011 0.000000
								CHANNELS 6 Xposition Yposition Zposition Xrotation Yrotation Zrotation
								JOINT Haolin_28_06:Solving:RightHand
								{
									OFFSET -20.216934 -0.000008 0.000000
									CHANNELS 6 Xposition Yposition Zposition Xrotation Yrotation Zrotation
									JOINT Haolin_28_06:Solving:RightHandThumb1
									{
										OFFSET -4.948814 2.881329 -3.679893
										CHANNELS 6 Xposition Yposition Zposition Xrotation Yrotation Zrotation
										End Site
										{
											OFFSET -7.039886 -0.000004 -7.104978
										}
									}
									JOINT Haolin_28_06:Solving:RightHandMiddle1
									{
										OFFSET -13.196846 -0.000004 0.084595
										CHANNELS 6 Xposition Yposition Zposition Xrotation Yrotation Zrotation
										End Site
										{
											OFFSET -10.002037 -0.000004 0.000000
										}
									}
								}
							}
						}
					}
					JOINT Haolin_28_06:Solving:LeftShoulder
					{
						OFFSET 0.000000 -8.290508 -5.270916
						CHANNELS 6 Xposition Yposition Zposition Xrotation Yrotation Zrotation
						JOINT Haolin_28_06:Solving:LeftArm
						{
							OFFSET 19.261074 -0.000008 0.000000
							CHANNELS 6 Xposition Yposition Zposition Xrotation Yrotation Zrotation
							JOINT Haolin_28_06:Solving:LeftForeArm
							{
								OFFSET 30.691700 -0.000011 0.000000
								CHANNELS 6 Xposition Yposition Zposition Xrotation Yrotation Zrotation
								JOINT Haolin_28_06:Solving:LeftHand
								{
									OFFSET 20.216934 -0.000008 0.000000
									CHANNELS 6 Xposition Yposition Zposition Xrotation Yrotation Zrotation
									JOINT Haolin_28_06:Solving:LeftHandThumb1
									{
										OFFSET 4.948814 2.881329 -3.679893
										CHANNELS 6 Xposition Yposition Zposition Xrotation Yrotation Zrotation
										End Site
										{
											OFFSET 7.039886 -0.000004 -7.104978
										}
									}
									JOINT Haolin_28_06:Solving:LeftHandMiddle1
									{
										OFFSET 13.196846 -0.000004 0.084595
										CHANNELS 6 Xposition Yposition Zposition Xrotation Yrotation Zrotation
										End Site
										{
											OFFSET 10.002037 -0.000004 0.000000
										}
									}
								}
							}
						}
					}
				}
			}
		}
	}
	JOINT Haolin_28_06:Solving:RightUpLeg
	{
		OFFSET -10.083070 0.000000 0.000000
		CHANNELS 6 Xposition Yposition Zposition Xrotation Yrotation Zrotation
		JOINT Haolin_28_06:Solving:RightLeg
		{
			OFFSET 0.000000 47.042522 -0.000008
			CHANNELS 6 Xposition Yposition Zposition Xrotation Yrotation Zrotation
			JOINT Haolin_28_06:Solving:RightFoot
			{
				OFFSET 0.000000 38.766415 -0.000006
				CHANNELS 6 Xposition Yposition Zposition Xrotation Yrotation Zrotation
				JOINT Haolin_28_06:Solving:RightForeFoot
				{
					OFFSET 0.000000 3.531212 -0.000000
					CHANNELS 6 Xposition Yposition Zposition Xrotation Yrotation Zrotation
					JOINT Haolin_28_06:Solving:RightToeBase
					{
						OFFSET 0.000000 0.000000 -13.829352
						CHANNELS 6 Xposition Yposition Zposition Xrotation Yrotation Zrotation
						JOINT Haolin_28_06:Solving:RightToeBaseEnd
						{
							OFFSET 0.000000 0.000000 -4.034167
							CHANNELS 6 Xposition Yposition Zposition Xrotation Yrotation Zrotation
							End Site
							{
								OFFSET 0.000000 -4.034164 0.000004
							}
						}
					}
				}
			}
		}
	}
	JOINT Haolin_28_06:Solving:LeftUpLeg
	{
		OFFSET 10.083070 0.000000 0.000000
		CHANNELS 6 Xposition Yposition Zposition Xrotation Yrotation Zrotation
		JOINT Haolin_28_06:Solving:LeftLeg
		{
			OFFSET 0.000000 47.042522 -0.000008
			CHANNELS 6 Xposition Yposition Zposition Xrotation Yrotation Zrotation
			JOINT Haolin_28_06:Solving:LeftFoot
			{
				OFFSET 0.000000 38.766415 -0.000006
				CHANNELS 6 Xposition Yposition Zposition Xrotation Yrotation Zrotation
				JOINT Haolin_28_06:Solving:LeftForeFoot
				{
					OFFSET 0.000000 3.531212 -0.000000
					CHANNELS 6 Xposition Yposition Zposition Xrotation Yrotation Zrotation
					JOINT Haolin_28_06:Solving:LeftToeBase
					{
						OFFSET 0.000000 0.000000 -13.829352
						CHANNELS 6 Xposition Yposition Zposition Xrotation Yrotation Zrotation
						JOINT Haolin_28_06:Solving:LeftToeBaseEnd
						{
							OFFSET 0.000000 0.000000 -4.855067
							CHANNELS 6 Xposition Yposition Zposition Xrotation Yrotation Zrotation
							End Site
							{
								OFFSET 0.000000 -4.855064 0.000004
							}
						}
					}
				}
			}
		}
	}
}
MOTION
Frames: 4
Frame Time: 0.041667
-8.602119 21.233463 -93.699532 76.688073 -9.938573 -4.842050 0.000001 -12.181993 2.015569 17.475281 -0.071864 -1.931754 -0.000000 -8.890304 1.567601 0.770806 0.228602 -0.215821 0.000002 -8.993103 0.786800 0.751387 4.489325 -0.065451 0.000003 -9.027424 0.000001 3.294320 0.815323 0.138102 0.000001 -11.606732 -1.160678 -2.292519 9.890899 -2.995453 -0.000001 -7.471585 -0.653681 1.150789 11.869936 -1.679735 -0.000003 -7.386178 -1.302374 7.874940 1.116440 -3.500568 -0.000003 -9.728073 -0.000009 -0.000001 -0.000000 -0.000001 0.000003 -8.290539 -5.270928 -0.000005 20.195319 8.133035 -19.261074 -0.000015 -0.000000 -12.821286 -47.009692 -81.831923 -30.691700 -0.000017 -0.000000 -23.161148 -16.442212 -6.904180 -20.216919 -0.000010 0.000003 1.407788 -12.410624 6.523358 -4.948804 2.881339 -3.679876 -0.000006 0.000005 0.000004 -13.196836 0.000006 0.084592 -0.000003 -0.000009 0.000002 0.000003 -8.290546 -5.270928 0.000000 -7.916919 -5.659260 19.261068 0.000024 -0.000004 -11.389128 54.138818 85.821627 30.691694 -0.000010 -0.000007 8.472628 22.797425 -3.303392 20.216940 -0.000010 0.000001 -0.400209 3.542301 6.450281 4.948796 2.881329 -3.679879 -0.000010 -0.000005 -0.000004 13.196837 -0.000004 0.084596 -0.000002 -0.000001 -0.000002 -10.083074 -0.000032 0.000006 9.545435 -5.041329 2.181747 -0.000004 47.042500 -0.000001 16.440489 -0.000001 -0.000001 0.000004 38.766418 -0.000010 -6.213533 13.800466 -13.436204 0.000002 3.531204 -0.000002 0.000000 -0.000000 -0.000001 -0.000002 0.000011 -13.829355 -1.985207 0.000000 -0.000002 -0.000004 0.000000 -4.034167 0.000001 -0.000000 -0.000001 10.083069 -0.000024 0.000005 7.501003 -11.038651 -3.246289 -0.000001 47.042538 -0.000006 8.005256 0.000001 -0.000000 -0.000004 38.766403 -0.000001 6.027997 -8.003349 14.825895 0.000001 3.531212 -0.000004 0.000001 -0.000004 0.000003 -0.000004 0.000009 -13.829358 5.162984 0.000005 -0.000003 -0.000007 -0.000008 -4.855068 -0.000000 0.000005 -0.000001 
-8.620853 21.182690 -93.698387 76.749436 -9.558359 -4.741315 -0.000002 -12.181956 2.015569 17.478985 -0.077545 -1.978181 0.000000 -8.890307 1.567608 0.764126 0.231047 -0.223787 -0.000002 -8.993106 0.786797 0.765538 4.505293 -0.062745 -0.000001 -9.027413 -0.000001 3.322484 0.806411 0.164003 0.000004 -11.606734 -1.160676 -2.368354 9.945228 -3.024216 -0.000000 -7.471621 -0.653683 1.141800 11.861873 -1.686198 0.000001 -7.386193 -1.302381 7.859091 1.118281 -3.517732 0.000004 -9.728035 0.000007 -0.000002 0.000000 -0.000001 0.000001 -8.290493 -5.270929 -0.000010 20.174886 8.028324 -19.261074 -0.000029 -0.000001 -12.602829 -46.890215 -81.915565 -30.691692 -0.000012 0.000002 -23.233244 -16.194389 -6.827347 -20.216915 -0.000009 -0.000001 1.341738 -12.303398 6.272574 -4.948835 2.881324 -3.679886 -0.000000 0.000003 0.000003 -13.196862 0.000005 0.084590 -0.000000 0.000003 -0.000001 0.000000 -8.290512 -5.270927 -0.000006 -7.840653 -5.709224 19.261065 -0.000003 -0.000009 -11.625269 54.110647 86.028500 30.691710 -0.000017 -0.000003 8.559747 22.785241 -3.336104 20.216923 -0.000014 0.000004 -0.398351 3.558756 6.391253 4.948797 2.881315 -3.679869 -0.000003 -0.000005 -0.000003 13.196830 -0.000018 0.084602 0.000008 -0.000000 -0.000001 -10.083072 0.000011 0.000008 9.383929 -5.320390 2.160142 0.000001 47.042542 -0.000006 16.525052 -0.000002 -0.000001 0.000007 38.766434 -0.000005 -6.167955 13.768653 -13.479088 -0.000005 3.531204 -0.000002 0.000000 -0.000000 -0.000000 0.000000 0.000008 -13.829352 -1.924525 0.000000 -0.000002 -0.000002 -0.000000 -4.034173 -0.000000 0.000000 -0.000000 10.083067 0.000003 0.000006 7.424428 -11.168321 -3.284649 0.000001 47.042519 -0.000001 8.140029 0.000001 -0.000001 -0.000003 38.766407 -0.000010 5.967360 -8.214894 14.825583 0.000001 3.531219 0.000001 0.000001 -0.000002 -0.000001 0.000005 -0.000007 -13.829358 5.171803 -0.000004 0.000001 0.000008 -0.000000 -4.855068 0.000001 -0.000002 -0.000000 
-8.642092 21.134987 -93.693932 76.803380 -9.205078 -4.650304 -0.000000 -12.181973 2.015550 17.495613 -0.084787 -2.000086 0.000000 -8.890321 1.567605 0.762415 0.232824 -0.226174 -0.000001 -8.993079 0.786795 0.771058 4.531889 -0.068392 0.000002 -9.027468 0.000004 3.327657 0.806134 0.150880 -0.000000 -11.606709 -1.160669 -2.437626 9.974491 -3.042205 0.000000 -7.471609 -0.653678 1.101456 11.852887 -1.682000 0.000002 -7.386179 -1.302379 7.823583 1.119865 -3.525209 0.000007 -9.728065 0.000005 0.000000 -0.000000 -0.000000 0.000000 -8.290474 -5.270920 -0.000009 20.189517 7.921638 -19.261068 -0.000020 0.000008 -12.232811 -47.292510 -81.844845 -30.691683 -0.000031 0.000004 -23.703357 -15.940290 -6.875287 -20.216921 -0.000015 0.000011 1.313720 -12.192978 6.196913 -4.948806 2.881332 -3.679879 -0.000004 0.000003 0.000001 -13.196832 0.000006 0.084593 0.000004 0.000002 -0.000001 -0.000001 -8.290478 -5.270919 -0.000005 -7.790936 -5.726386 19.261065 -0.000015 -0.000002 -11.832852 54.128689 86.215210 30.691723 -0.000021 0.000005 8.669814 22.777574 -3.378487 20.216915 -0.000026 0.000006 -0.398529 3.557051 6.396993 4.948837 2.881342 -3.679874 -0.000007 -0.000007 -0.000001 13.196884 0.000004 0.084598 -0.000001 -0.000000 -0.000000 -10.083073 -0.000003 -0.000005 9.223356 -5.575835 2.137300 -0.000001 47.042542 -0.000009 16.629769 0.000002 -0.000001 0.000004 38.766411 -0.000004 -6.150952 13.733322 -13.498142 0.000004 3.531212 -0.000001 0.000001 -0.000000 0.000000 -0.000001 0.000012 -13.829355 -1.846137 -0.000000 0.000001 0.000000 -0.000008 -4.034173 -0.000000 -0.000000 0.000000 10.083069 -0.000005 -0.000011 7.355573 -11.284576 -3.319285 -0.000000 47.042519 -0.000005 8.264401 0.000000 -0.000001 -0.000005 38.766426 -0.000010 5.911907 -8.420215 14.844479 -0.000000 3.531204 0.000003 -0.000000 0.000002 -0.000002 0.000001 -0.000001 -13.829351 5.153962 0.000003 -0.000002 0.000000 0.000007 -4.855062 -0.000001 0.000001 -0.000000 
-8.653402 21.086552 -93.687225 76.860692 -8.865570 -4.600607 -0.000000 -12.181937 2.015560 17.507030 -0.086179 -1.979335 -0.000001 -8.890305 1.567600 0.754347 0.236052 -0.226661 -0.000001 -8.993101 0.786798 0.772190 4.563930 -0.076264 -0.000001 -9.027454 -0.000000 3.326397 0.819808 0.129693 0.000000 -11.606707 -1.160660 -2.519117 9.965186 -3.040321 -0.000002 -7.471582 -0.653675 1.037111 11.829941 -1.677761 0.000000 -7.386194 -1.302391 7.806988 1.117736 -3.542348 -0.000003 -9.728104 -0.000001 -0.000002 -0.000001 0.000000 0.000000 -8.290508 -5.270909 -0.000014 20.117895 7.887007 -19.261076 -0.000043 0.000004 -12.197422 -46.975562 -82.124958 -30.691671 -0.000011 -0.000006 -23.429461 -15.479842 -6.597545 -20.216936 -0.000011 -0.000001 1.201690 -12.119976 5.705327 -4.948775 2.881319 -3.679885 -0.000004 0.000003 0.000002 -13.196821 -0.000011 0.084596 -0.000003 -0.000003 0.000003 -0.000002 -8.290508 -5.270908 -0.000007 -7.765349 -5.717137 19.261066 -0.000009 -0.000004 -11.989111 54.180684 86.364061 30.691706 -0.000018 -0.000003 8.755834 22.793216 -3.414658 20.216940 -0.000012 0.000004 -0.394398 3.539044 6.363071 4.948813 2.881319 -3.679880 -0.000004 -0.000003 -0.000001 13.196854 -0.000008 0.084595 -0.000007 -0.000003 -0.000000 -10.083076 0.000021 -0.000001 9.082259 -5.817882 2.166084 -0.000000 47.042545 -0.000001 16.706035 0.000001 -0.000001 0.000007 38.766441 -0.000008 -6.169814 13.655183 -13.492749 0.000000 3.531204 -0.000002 -0.000001 -0.000000 0.000000 -0.000003 -0.000002 -13.829355 -1.698924 0.000000 -0.000001 0.000001 -0.000008 -4.034158 -0.000001 -0.000000 -0.000002 10.083069 0.000014 -0.000003 7.281832 -11.295971 -3.305076 0.000001 47.042519 -0.000002 8.412711 -0.000001 -0.000001 -0.000002 38.766418 -0.000005 5.867460 -8.686652 14.817271 0.000001 3.531204 0.000004 0.000001 0.000000 0.000002 0.000004 0.000014 -13.829354 5.080428 0.000001 0.000002 0.000002 -0.000008 -4.855062 -0.000001 -0.000000 0.000001 
